<svg xmlns="http://www.w3.org/2000/svg" viewBox="0 0 360.98 352.85"><defs><style>.cls-1,.cls-2{fill:#fff;}.cls-2{font-size:28.97px;font-family:Montserrat-Regular, Montserrat;}</style></defs><title>logo_wit</title><g id="Laag_2" data-name="Laag 2"><g id="Laag_1-2" data-name="Laag 1"><path class="cls-1" d="M113-685.59c13.71-7.18,22.66-14.48,21.31-27.36-1.2-11.47-11.73-19.55-23.25-18.94C58.48-729.13,33.29-682.07,11.78-582a.69.69,0,0,0,1.33.39C34.84-643.13,84-670.39,113-685.59Z" transform="translate(-8 817)"/><path class="cls-1" d="M24.87-582.89a.7.7,0,0,1-1.19-.7c16.46-45.53,50.14-72,82.27-87.54a184.82,184.82,0,0,0,25.39-15,.7.7,0,0,1,1.09.71c-8.51,40-41.82,70.69-74,81.36C39.15-597.7,29.22-588.24,24.87-582.89Z" transform="translate(-8 817)"/><path class="cls-1" d="M36.93-518.33,28-532.41c-1,.09-1.85.13-2.49.13H14.14v13.95H8v-44.8H25.54q8.51,0,13.15,3.93T43.33-548a15.88,15.88,0,0,1-2.53,9.16,14.13,14.13,0,0,1-7.26,5.37L44-518.33ZM25.54-537.85q5.76,0,8.83-2.53t3.07-7.46q0-4.8-3.07-7.26c-2-1.64-5-2.47-8.83-2.47H14.14v19.72Z" transform="translate(-8 817)"/><path class="cls-1" d="M54.27-563.13H85.38v5.56h-25v13.83H82.76v5.57H60.42v14.27H86.15v5.57H54.27Z" transform="translate(-8 817)"/><path class="cls-1" d="M95.77-610.29l4.4-2.51c.55-.31,1.34,0,1.34.48l.09,93.63c0,.34-.37.61-.83.61H96.28c-.46,0-.83-.27-.83-.6v-91.13A.58.58,0,0,1,95.77-610.29Z" transform="translate(-8 817)"/><path class="cls-1" d="M146-540.22h5.44v16.45a27.27,27.27,0,0,1-7.93,4.29,27.22,27.22,0,0,1-9,1.6,23.72,23.72,0,0,1-11.84-3,22.58,22.58,0,0,1-8.48-8.32,22.38,22.38,0,0,1-3.1-11.56,21.83,21.83,0,0,1,3.13-11.48,22.55,22.55,0,0,1,8.58-8.23,24.52,24.52,0,0,1,12-3,25.78,25.78,0,0,1,9.12,1.67,24.37,24.37,0,0,1,7.71,4.54l-3.52,4.48a19.63,19.63,0,0,0-6.17-3.87,19.29,19.29,0,0,0-7.14-1.38,17.45,17.45,0,0,0-8.83,2.31,17,17,0,0,0-6.37,6.27,16.84,16.84,0,0,0-2.34,8.7,16.84,16.84,0,0,0,2.37,8.74,17.6,17.6,0,0,0,6.4,6.34,17.31,17.31,0,0,0,8.84,2.33,19,19,0,0,0,5.72-.92,21.44,21.44,0,0,0,5.41-2.6Z" transform="translate(-8 817)"/><path class="cls-1" d="M163.08-563.13h31.11v5.56h-25v13.83h22.33v5.57H169.23v14.27H195v5.57H163.08Z" transform="translate(-8 817)"/><path class="cls-1" d="M233.81-518.33l-8.9-14.08c-1,.09-1.86.13-2.5.13H211v13.95h-6.14v-44.8h17.53q8.52,0,13.16,3.93T240.21-548a16,16,0,0,1-2.53,9.16,14.2,14.2,0,0,1-7.27,5.37l10.44,15.17Zm-11.4-19.52q5.76,0,8.84-2.53c2-1.68,3.07-4.17,3.07-7.46s-1-5.62-3.07-7.26-5-2.47-8.84-2.47H211v19.72Z" transform="translate(-8 817)"/><path class="cls-1" d="M67.17-503A22,22,0,0,0,61-504a11.35,11.35,0,0,0-6.24,1.51,4.67,4.67,0,0,0-2.33,4.12,5.46,5.46,0,0,0,1.41,3.88,9.85,9.85,0,0,0,3.45,2.36q2.05.87,5.7,2a65.29,65.29,0,0,1,7.36,2.69,12.63,12.63,0,0,1,4.8,3.81,10.52,10.52,0,0,1,2,6.68A11.16,11.16,0,0,1,75-470.16a13.2,13.2,0,0,1-5.82,4.44,22.08,22.08,0,0,1-8.61,1.57,25,25,0,0,1-9.6-1.92A26.11,26.11,0,0,1,43-471.19l2.75-5.31a23,23,0,0,0,7.2,4.83,19.85,19.85,0,0,0,7.77,1.7,12.49,12.49,0,0,0,7.08-1.76,5.48,5.48,0,0,0,2.59-4.77,5.57,5.57,0,0,0-1.41-3.91,10,10,0,0,0-3.55-2.43c-1.43-.59-3.36-1.26-5.79-2a58.72,58.72,0,0,1-7.3-2.63,12.57,12.57,0,0,1-4.77-3.77,10.43,10.43,0,0,1-2-6.6,10.56,10.56,0,0,1,2-6.33,12.6,12.6,0,0,1,5.57-4.23,21.8,21.8,0,0,1,8.32-1.47,26.89,26.89,0,0,1,7.91,1.19,26.67,26.67,0,0,1,6.88,3.16L73.67-500A26.2,26.2,0,0,0,67.17-503Z" transform="translate(-8 817)"/><path class="cls-1" d="M81.16-509.34h35v5.64H101.7v39.17H95.56V-503.7H81.16Z" transform="translate(-8 817)"/><path class="cls-1" d="M152.2-464.53l-4.74-10.88H123.85l-4.67,10.88h-6.47l19.91-44.81H139l19.84,44.81ZM126.28-481H145.1l-9.48-21.76Z" transform="translate(-8 817)"/><path class="cls-1" d="M195.63-505.37q4.58,4,4.57,11.14,0,7.49-4.6,11.62t-12.93,4.12H171.53v14h-6.14v-44.81h17.28Q191.06-509.34,195.63-505.37Zm-4.39,18.79c2-1.69,3.08-4.17,3.08-7.46s-1-5.62-3.08-7.26-5-2.47-8.83-2.47l-10.88.07V-484h10.88C186.25-484,189.2-484.9,191.24-486.58Z" transform="translate(-8 817)"/><path class="cls-1" d="M238.57-505.37q4.58,4,4.58,11.14,0,7.49-4.61,11.62t-12.93,4.12H214.48v14h-6.15v-44.81h17.28Q234-509.34,238.57-505.37Zm-4.38,18.79c2.05-1.69,3.07-4.17,3.07-7.46s-1-5.62-3.07-7.26-5-2.47-8.83-2.47l-10.88.07V-484h10.88C229.2-484,232.14-484.9,234.19-486.58Z" transform="translate(-8 817)"/><path class="cls-1" d="M251.28-509.34h31.1v5.57h-25v13.83h22.34v5.57H257.42v14.27h25.73v5.57H251.28Z" transform="translate(-8 817)"/><path class="cls-1" d="M322-464.53l-8.89-14.08c-1,.08-1.86.12-2.5.12H299.22v14h-6.15v-44.81h17.54q8.5,0,13.15,3.94t4.64,11.17a15.89,15.89,0,0,1-2.52,9.15,14.16,14.16,0,0,1-7.27,5.38L329-464.53ZM310.61-484c3.84,0,6.79-.85,8.83-2.53s3.08-4.17,3.08-7.46-1-5.62-3.08-7.26-5-2.47-8.83-2.47H299.22V-484Z" transform="translate(-8 817)"/><path class="cls-1" d="M359-503a22,22,0,0,0-6.18-1,11.35,11.35,0,0,0-6.24,1.51,4.65,4.65,0,0,0-2.33,4.12,5.5,5.5,0,0,0,1.4,3.88,9.89,9.89,0,0,0,3.46,2.36c1.37.58,3.26,1.25,5.7,2a65.29,65.29,0,0,1,7.36,2.69,12.71,12.71,0,0,1,4.8,3.81,10.52,10.52,0,0,1,2,6.68,11.16,11.16,0,0,1-2.08,6.73,13.31,13.31,0,0,1-5.82,4.44,22.08,22.08,0,0,1-8.61,1.57,25,25,0,0,1-9.6-1.92,26,26,0,0,1-8.07-5.12l2.76-5.31a23,23,0,0,0,7.2,4.83,19.81,19.81,0,0,0,7.77,1.7,12.49,12.49,0,0,0,7.08-1.76,5.5,5.5,0,0,0,2.59-4.77,5.57,5.57,0,0,0-1.41-3.91,10,10,0,0,0-3.55-2.43,60.71,60.71,0,0,0-5.8-2,59.09,59.09,0,0,1-7.29-2.63,12.57,12.57,0,0,1-4.77-3.77,10.43,10.43,0,0,1-1.95-6.6,10.56,10.56,0,0,1,2-6.33,12.55,12.55,0,0,1,5.57-4.23,21.8,21.8,0,0,1,8.32-1.47,26.94,26.94,0,0,1,7.91,1.19,26.67,26.67,0,0,1,6.88,3.16L365.53-500A26.37,26.37,0,0,0,359-503Z" transform="translate(-8 817)"/><path class="cls-1" d="M60.05-592.65a1.13,1.13,0,0,0-1.42-1.55c-19.74,7.84-28.9,16.11-22.75,22.1C40.76-567.35,51.49-576,60.05-592.65Z" transform="translate(-8 817)"/><text class="cls-2" transform="translate(243.28 297.17)">VZW</text><path class="cls-1" d="M166.92-761.16c12,7.11,20.74,33.75,2.26,59.14-18,24.71-28,35.31-32.07,39.18a.7.7,0,0,1-1.13-.75c7.85-21.9,6.17-35.4,12.14-46,6.21-11,22.65-24.06-.69-46.95-4-3.91-19-9.11-20.85-25.8-1.47-13.07,6.58-33.17,23-34.47a58.84,58.84,0,0,1,23.84,3.23c11.7,3.9,12.44,9.47,10.19,15.74-3.69,10.26-11.41,5.54-22.27,4.42C145.16-795.1,143.86-774.88,166.92-761.16Z" transform="translate(-8 817)"/><path class="cls-1" d="M189-789.22c3.68-4.51,4.79-8.79,4.7-14.87a.3.3,0,0,1,.42-.28c18,8.4,48.24,23.16,56.33,27.12a.29.29,0,0,1-.19.55l-61.1-12A.29.29,0,0,1,189-789.22Z" transform="translate(-8 817)"/></g></g></svg>