<?xml version="1.0" encoding="utf-8"?>
<!-- Generator: Adobe Illustrator 22.0.1, SVG Export Plug-In . SVG Version: 6.00 Build 0)  -->
<svg version="1.1" id="Laag_1" xmlns="http://www.w3.org/2000/svg" xmlns:xlink="http://www.w3.org/1999/xlink" x="0px" y="0px"
	 viewBox="0 0 510.2 510.2" style="enable-background:new 0 0 510.2 510.2;" xml:space="preserve">
<style type="text/css">
	.st0{fill:#A2C037;}
	.st1{fill:#386539;}
	.st2{fill:none;stroke:#A2C037;stroke-width:2;stroke-linecap:round;stroke-miterlimit:10;}
	.st3{fill:#809639;}
	.st4{fill:#614633;}
	.st5{fill:none;stroke:#A21C26;stroke-miterlimit:10;}
	.st6{fill:#A21C26;}
	.st7{fill:none;stroke:#68A8DE;stroke-miterlimit:10;}
	.st8{fill:#68A8DE;}
	.st9{fill:none;stroke:#80217E;stroke-miterlimit:10;}
	.st10{fill:#80217E;}
	.st11{fill:none;stroke:#6AA842;stroke-miterlimit:10;}
	.st12{fill:none;stroke:#F7EA3A;stroke-miterlimit:10;}
	.st13{fill:#FFFFFF;}
	.st14{fill:#AEC646;}
	.st15{fill:#578679;}
	.st16{fill:#386539;stroke:#386539;stroke-width:0.5;stroke-miterlimit:10;}
	.st17{fill:none;stroke:#F7EA3A;stroke-width:0.25;stroke-miterlimit:10;}
	.st18{fill:#C20E1A;}
	.st19{fill:none;stroke:#C20E1A;stroke-width:0.25;stroke-miterlimit:10;}
	.st20{fill:#C2CF2E;}
	.st21{fill:#68AB6A;}
	.st22{fill:#B9C430;}
	.st23{fill:#4E6168;}
	.st24{fill:#5BA1B2;}
	.st25{fill:#2E522D;}
	.st26{fill:#493022;}
	.st27{fill:#58274F;}
	.st28{fill:#34505A;}
	.st29{fill:#7DBDCA;}
	.st30{fill:#88A139;}
	.st31{fill:#EAB821;}
	.st32{fill:#829738;}
	.st33{fill:#DE9D1C;}
	.st34{fill:#C7323E;}
	.st35{fill:#40193A;}
	.st36{fill:none;}
	.st37{font-family:'Montserrat-Regular';}
	.st38{font-size:28.973px;}
</style>
<g>
	<path class="st24" d="M179.3,210.1c13.7-7.2,22.7-14.5,21.3-27.4c-1.2-11.5-11.7-19.6-23.3-18.9c-52.6,2.8-77.8,49.8-99.3,149.9
		c-0.2,0.9,1,1.2,1.3,0.4C101.2,252.6,150.3,225.3,179.3,210.1z"/>
	<path class="st28" d="M91.2,312.8c-0.5,0.6-1.5,0-1.2-0.7c16.5-45.5,50.1-72,82.3-87.5c12.2-5.9,21.8-12.5,25.4-15
		c0.5-0.4,1.2,0.1,1.1,0.7c-8.5,40-41.8,70.7-74,81.4C105.5,298,95.5,307.5,91.2,312.8z"/>
	<path class="st24" d="M103.2,377.4l-8.9-14.1c-1,0.1-1.9,0.1-2.5,0.1H80.5v14h-6.1v-44.8h17.5c5.7,0,10.1,1.3,13.2,3.9
		c3.1,2.6,4.6,6.3,4.6,11.2c0,3.6-0.8,6.7-2.5,9.2c-1.7,2.5-4.1,4.3-7.3,5.4l10.4,15.2H103.2z M91.9,357.8c3.8,0,6.8-0.8,8.8-2.5
		c2-1.7,3.1-4.2,3.1-7.5c0-3.2-1-5.6-3.1-7.3c-2-1.6-5-2.5-8.8-2.5H80.5v19.7H91.9z"/>
	<path class="st24" d="M120.6,332.6h31.1v5.6h-25V352h22.3v5.6h-22.3v14.3h25.7v5.6h-31.9V332.6z"/>
	<path class="st24" d="M162.1,285.4l4.4-2.5c0.5-0.3,1.3,0,1.3,0.5l0.1,93.6c0,0.3-0.4,0.6-0.8,0.6h-4.5c-0.5,0-0.8-0.3-0.8-0.6
		v-91.1C161.8,285.7,161.9,285.5,162.1,285.4z"/>
	<path class="st24" d="M212.3,355.5h5.4v16.4c-2.3,1.8-4.9,3.2-7.9,4.3c-3,1.1-6,1.6-9,1.6c-4.3,0-8.3-1-11.8-3
		c-3.6-2-6.4-4.8-8.5-8.3c-2.1-3.5-3.1-7.4-3.1-11.6c0-4.2,1-8,3.1-11.5c2.1-3.5,4.9-6.2,8.6-8.2c3.6-2,7.6-3,12-3
		c3.1,0,6.2,0.6,9.1,1.7c3,1.1,5.5,2.6,7.7,4.5l-3.5,4.5c-1.8-1.7-3.9-3-6.2-3.9c-2.3-0.9-4.7-1.4-7.1-1.4c-3.2,0-6.1,0.8-8.8,2.3
		c-2.7,1.5-4.8,3.6-6.4,6.3c-1.6,2.6-2.3,5.5-2.3,8.7c0,3.2,0.8,6.1,2.4,8.7c1.6,2.7,3.7,4.8,6.4,6.3c2.7,1.6,5.6,2.3,8.8,2.3
		c1.9,0,3.8-0.3,5.7-0.9c1.9-0.6,3.7-1.5,5.4-2.6V355.5z"/>
	<path class="st24" d="M229.4,332.6h31.1v5.6h-25V352h22.3v5.6h-22.3v14.3h25.7v5.6h-31.9V332.6z"/>
	<path class="st24" d="M300.1,377.4l-8.9-14.1c-1,0.1-1.9,0.1-2.5,0.1h-11.4v14h-6.1v-44.8h17.5c5.7,0,10.1,1.3,13.2,3.9
		c3.1,2.6,4.6,6.3,4.6,11.2c0,3.6-0.8,6.7-2.5,9.2c-1.7,2.5-4.1,4.3-7.3,5.4l10.4,15.2H300.1z M288.7,357.8c3.8,0,6.8-0.8,8.8-2.5
		c2-1.7,3.1-4.2,3.1-7.5c0-3.2-1-5.6-3.1-7.3c-2-1.6-5-2.5-8.8-2.5h-11.4v19.7H288.7z"/>
	<path class="st24" d="M133.5,392.7c-2.2-0.7-4.3-1-6.2-1c-2.6,0-4.7,0.5-6.2,1.5c-1.6,1-2.3,2.4-2.3,4.1c0,1.6,0.5,2.9,1.4,3.9
		c0.9,1,2.1,1.8,3.5,2.4c1.4,0.6,3.3,1.2,5.7,2c3,0.9,5.5,1.8,7.4,2.7c1.9,0.9,3.5,2.1,4.8,3.8c1.3,1.7,2,3.9,2,6.7
		c0,2.6-0.7,4.8-2.1,6.7c-1.4,1.9-3.3,3.4-5.8,4.4c-2.5,1-5.4,1.6-8.6,1.6c-3.3,0-6.5-0.6-9.6-1.9c-3.1-1.3-5.8-3-8.1-5.1l2.8-5.3
		c2.1,2.1,4.5,3.7,7.2,4.8c2.7,1.1,5.3,1.7,7.8,1.7c3,0,5.3-0.6,7.1-1.8c1.7-1.2,2.6-2.8,2.6-4.8c0-1.6-0.5-2.9-1.4-3.9
		c-0.9-1-2.1-1.8-3.6-2.4c-1.4-0.6-3.4-1.3-5.8-2c-3-0.9-5.4-1.8-7.3-2.6c-1.9-0.9-3.5-2.1-4.8-3.8c-1.3-1.7-2-3.9-2-6.6
		c0-2.4,0.7-4.5,2-6.3c1.3-1.8,3.2-3.2,5.6-4.2c2.4-1,5.2-1.5,8.3-1.5c2.7,0,5.3,0.4,7.9,1.2c2.6,0.8,4.9,1.8,6.9,3.2l-2.6,5.5
		C137.9,394.4,135.7,393.4,133.5,392.7z"/>
	<path class="st24" d="M147.5,386.4h35v5.6H168v39.2h-6.1V392h-14.4V386.4z"/>
	<path class="st24" d="M218.5,431.2l-4.7-10.9h-23.6l-4.7,10.9H179l19.9-44.8h6.4l19.8,44.8H218.5z M192.6,414.7h18.8l-9.5-21.8
		L192.6,414.7z"/>
	<path class="st24" d="M261.9,390.3c3,2.6,4.6,6.4,4.6,11.1c0,5-1.5,8.9-4.6,11.6s-7.4,4.1-12.9,4.1h-11.1v14h-6.1v-44.8H249
		C254.6,386.4,258.9,387.7,261.9,390.3z M257.6,409.1c2-1.7,3.1-4.2,3.1-7.5c0-3.2-1-5.6-3.1-7.3c-2-1.6-5-2.5-8.8-2.5l-10.9,0.1
		v19.7h10.9C252.6,411.6,255.5,410.8,257.6,409.1z"/>
	<path class="st24" d="M304.9,390.3c3,2.6,4.6,6.4,4.6,11.1c0,5-1.5,8.9-4.6,11.6s-7.4,4.1-12.9,4.1h-11.1v14h-6.1v-44.8h17.3
		C297.5,386.4,301.8,387.7,304.9,390.3z M300.5,409.1c2-1.7,3.1-4.2,3.1-7.5c0-3.2-1-5.6-3.1-7.3c-2-1.6-5-2.5-8.8-2.5l-10.9,0.1
		v19.7h10.9C295.5,411.6,298.5,410.8,300.5,409.1z"/>
	<path class="st24" d="M317.6,386.4h31.1v5.6h-25v13.8h22.3v5.6h-22.3v14.3h25.7v5.6h-31.9V386.4z"/>
	<path class="st24" d="M388.3,431.2l-8.9-14.1c-1,0.1-1.9,0.1-2.5,0.1h-11.4v14h-6.1v-44.8h17.5c5.7,0,10.1,1.3,13.2,3.9
		c3.1,2.6,4.6,6.3,4.6,11.2c0,3.6-0.8,6.7-2.5,9.2c-1.7,2.5-4.1,4.3-7.3,5.4l10.4,15.2H388.3z M376.9,411.6c3.8,0,6.8-0.8,8.8-2.5
		c2-1.7,3.1-4.2,3.1-7.5c0-3.2-1-5.6-3.1-7.3c-2-1.6-5-2.5-8.8-2.5h-11.4v19.7H376.9z"/>
	<path class="st24" d="M425.3,392.7c-2.2-0.7-4.3-1-6.2-1c-2.6,0-4.7,0.5-6.2,1.5c-1.6,1-2.3,2.4-2.3,4.1c0,1.6,0.5,2.9,1.4,3.9
		c0.9,1,2.1,1.8,3.5,2.4c1.4,0.6,3.3,1.2,5.7,2c3,0.9,5.5,1.8,7.4,2.7c1.9,0.9,3.5,2.1,4.8,3.8c1.3,1.7,2,3.9,2,6.7
		c0,2.6-0.7,4.8-2.1,6.7c-1.4,1.9-3.3,3.4-5.8,4.4c-2.5,1-5.4,1.6-8.6,1.6c-3.3,0-6.5-0.6-9.6-1.9c-3.1-1.3-5.8-3-8.1-5.1l2.8-5.3
		c2.1,2.1,4.5,3.7,7.2,4.8c2.7,1.1,5.3,1.7,7.8,1.7c3,0,5.3-0.6,7.1-1.8c1.7-1.2,2.6-2.8,2.6-4.8c0-1.6-0.5-2.9-1.4-3.9
		c-0.9-1-2.1-1.8-3.6-2.4c-1.4-0.6-3.4-1.3-5.8-2c-3-0.9-5.4-1.8-7.3-2.6c-1.9-0.9-3.5-2.1-4.8-3.8c-1.3-1.7-2-3.9-2-6.6
		c0-2.4,0.7-4.5,2-6.3c1.3-1.8,3.2-3.2,5.6-4.2c2.4-1,5.2-1.5,8.3-1.5c2.7,0,5.3,0.4,7.9,1.2c2.6,0.8,4.9,1.8,6.9,3.2l-2.6,5.5
		C429.7,394.4,427.6,393.4,425.3,392.7z"/>
	<path class="st24" d="M126.4,303c0.5-0.9-0.5-1.9-1.4-1.5c-19.7,7.8-28.9,16.1-22.8,22.1C107.1,328.3,117.8,319.7,126.4,303z"/>
	<rect x="317.6" y="354.4" class="st36" width="92.7" height="24.8"/>
	<text transform="matrix(1 0 0 1 317.5914 375.8597)" class="st22 st37 st38">vzw</text>
	<path class="st28" d="M233.2,134.5c11.9,7.1,20.7,33.8,2.3,59.1c-18,24.7-28,35.3-32.1,39.2c-0.5,0.5-1.4-0.1-1.1-0.7
		c7.9-21.9,6.2-35.4,12.1-46c6.2-11,22.7-24.1-0.7-46.9c-4-3.9-19-9.1-20.8-25.8c-1.5-13.1,6.6-33.2,23-34.5
		c10.4-0.8,18.5,1.5,23.8,3.2c11.7,3.9,12.4,9.5,10.2,15.7c-3.7,10.3-11.4,5.5-22.3,4.4C211.5,100.6,210.2,120.8,233.2,134.5z"/>
	<path class="st24" d="M255.3,106.5c3.7-4.5,4.8-8.8,4.7-14.9c0-0.2,0.2-0.4,0.4-0.3c18,8.4,48.2,23.2,56.3,27.1
		c0.3,0.2,0.2,0.6-0.2,0.6l-61.1-12C255.3,106.9,255.2,106.6,255.3,106.5z"/>
</g>
</svg>
